<svg width="94.286" height="80.079" version="1.1" xmlns="http://www.w3.org/2000/svg">
 <defs>
  <style>.cls-3{fill:#fff}</style>
 </defs>
 <circle cx="41.569" cy="30" r="28" fill="#45c1ff" style="fill:#228c3a"/>
 <path class="cls-3" d="m49.159 25.79a7.3 7.3 0 0 0-14.31 0 5.1132 5.1132 0 0 0 0.58 10.21h3.65a0.73 0.73 0 1 0 0-1.46h-3.65a3.65 3.65 0 0 1 0-7.3 0.73 0.73 0 0 0 0.72-0.65 5.84 5.84 0 0 1 11.61 0 0.77 0.77 0 0 0 0.77 0.65 3.65 3.65 0 1 1 0 7.3h-3.65a0.73 0.73 0 1 0 0 1.46h3.69a5.11 5.11 0 0 0 0.58-10.18z"/>
 <path class="cls-3" d="m44.569 37.47-1.85 1.85v-9.19a0.73 0.73 0 1 0-1.46 0v9.19l-1.86-1.85a0.73 0.73 0 1 0-1 1l3.1 3.1a0.87 0.87 0 0 0 0.23 0.16 0.8 0.8 0 0 0 0.57 0 0.87 0.87 0 0 0 0.23-0.16l3.1-3.1a0.73 0.73 0 0 0 0-1 0.74 0.74 0 0 0-1 0z"/>
 <text transform="scale(.94143 1.0622)" x="1.5121813" y="73.194397" style="fill:#11694f;font-family:sans-serif;font-size:20.556px;line-height:1.25;mix-blend-mode:overlay;stroke-dasharray:1.028,0.514,0.257,0.514;stroke-width:.514;stroke:#19008b" xml:space="preserve"><tspan x="1.5121813" y="73.194397" style="fill:#11694f;stroke-dasharray:1.028,0.514,0.257,0.514;stroke-width:.514;stroke:#19008b">viddon.tk</tspan></text>
</svg>
