<?xml version="1.0" encoding="utf-8"?>
<!-- Generator: Adobe Illustrator 25.0.1, SVG Export Plug-In . SVG Version: 6.00 Build 0)  -->
<svg version="1.0" id="svg" xmlns="http://www.w3.org/2000/svg" xmlns:xlink="http://www.w3.org/1999/xlink" x="0px" y="0px"
	 viewBox="0 0 508 324.6" style="enable-background:new 0 0 508 324.6;" xml:space="preserve">
<style type="text/css">
	.st0{fill-rule:evenodd;clip-rule:evenodd;fill:#0474FC;}
</style>
<path id="path0" class="st0" d="M345.2,111.9c1.6-3.8,6.3-6,10.2-4.5c3,1.1,5.2,4.1,5.2,7.3v21.6h21.5c1.8-0.1,3.8,0.3,5.2,1.6
	c1.2,1,1.9,2.4,2.4,3.8c11,27.2,22,54.5,33.1,81.7c10.6-26.3,21.2-52.7,31.7-79c0.8-1.8,1.4-3.8,3-5.2c3.1-2.8,8.6-2.6,11.5,0.4
	c2.1,2,2.9,5.3,1.7,8c-12.2,29.5-24.3,58.9-36.5,88.3c-2.4,5.7-9.2,8.7-15,7c-2.8-0.8-5.3-2.6-6.9-5.1c-0.9-1.4-1.5-3-2.1-4.5
	c-11.4-27.6-22.7-55.1-34-82.6h-15.5v65.1c0,4.8,2.1,10.5,7.1,12.1v14.8c-5.9,0.1-12.3-1.3-16.7-5.7c-3.2-3.1-5-7.3-5.8-11.6
	c-0.8-3.9-0.6-8-0.6-12v-62.6h-11.5c-1.7,0-3.4-0.6-4.6-1.8c-2.9-2.6-3.2-7.7-0.4-10.5c1.3-1.4,3.2-2.1,5.1-2h11.5v-20
	C344.7,114.9,344.6,113.3,345.2,111.9L345.2,111.9z M53.5,108.2h26.9v35.6c9.8-5.5,21-7.8,32.2-6.6c13.2,1.4,25.6,8.1,34.2,18.2
	c7.3,8.6,11.9,19.5,12.6,30.8c1.7,24.1-13.1,46.3-36,54c-11.1,3.7-23.1,3.7-34.1-0.1c-12-4.2-22.2-12.5-28.6-23.5
	c-4.6-7.9-7.1-17-7.2-26.1C53.5,162.9,53.5,135.6,53.5,108.2L53.5,108.2z M103.3,163.9c-6.7,0.8-12.9,4.3-17.1,9.5
	c-3.8,4.7-5.9,10.5-5.9,16.5c-0.1,5.9,1.9,11.7,5.6,16.4c3.6,4.6,8.7,7.9,14.4,9.4c5.9,1.5,12.2,0.8,17.7-1.8
	c5.9-2.8,10.5-7.7,12.9-13.7c2.5-6.3,2.6-13.3,0.2-19.7c-2.2-5.5-6.1-10.1-11.1-13.1C114.9,164.4,109.1,163.2,103.3,163.9z
	 M170.5,108.2c8.9,0,17.8,0,26.7,0.1v71c0,5.2,0,10.4,0.3,15.6c0.7,9.5,8.1,18.6,17.8,20v26.9c-9.9-0.6-19.2-5-26.9-11
	c-6.3-4.9-11.5-11.4-14.3-19c-3.1-8.2-3.6-17.2-3.7-26V108.2L170.5,108.2z M223.1,136.1c8.9,0,17.8,0,26.7,0.1
	c0,17.4-0.1,34.7,0.1,52.1c0.2,3.7-0.1,7.5,1.1,11.1c1.8,5.9,5.9,11.3,11.6,14c5.6,2.7,12.4,2.4,17.8-0.6c4.5-2.4,8-6.3,9.8-11.1
	c1.9-4.6,1.7-9.7,1.8-14.5v-50.9c8.7,0,17.2,0,25.9-0.1v34.5c-0.1,9.4,0.3,18.8-0.7,28.1c-0.5,4.5-1.1,8.9-2.7,13.1
	c-2.6,7.2-7.5,13.5-13.4,18.4c-5,4.1-10.6,7.5-16.8,9.4c-7.2,2.1-14.8,2.5-22.2,1.3c-7.3-1.2-14-4.7-19.9-9.1
	c-6.5-4.8-11.9-11.1-15-18.6c-3.8-9-4.1-19-4.2-28.7C223.1,168.4,223.1,152.3,223.1,136.1L223.1,136.1z"/>
</svg>
