<?xml version="1.0" encoding="utf-8"?><!DOCTYPE svg PUBLIC "-//W3C//DTD SVG 1.1//EN" "http://www.w3.org/Graphics/SVG/1.1/DTD/svg11.dtd"><svg version="1.1" id="Layer_1" xmlns="http://www.w3.org/2000/svg" xmlns:xlink="http://www.w3.org/1999/xlink" x="0px" y="0px" viewBox="0 0 115 44" enable-background="new 0 0 115 44" xml:space="preserve"><path id="logotype" d="M101.8,12.1c0.9,2.7-1.5,5.1-4.2,4.2c-0.9-0.3-1.6-1-1.9-1.9c-0.9-2.7,1.5-5.1,4.2-4.2 C100.7,10.4,101.5,11.2,101.8,12.1z M106.3,10.1c-2.7-0.9-5.1,1.5-4.2,4.2c0.3,0.9,1,1.6,1.9,1.9c2.7,0.9,5.1-1.5,4.2-4.2 C108,11.2,107.2,10.4,106.3,10.1z M54.2,10.1c-2.7-0.9-5.1,1.5-4.2,4.2c0.3,0.9,1,1.6,1.9,1.9c2.7,0.9,5.1-1.5,4.2-4.2 C55.9,11.2,55.1,10.4,54.2,10.1z M47.7,10.1c-2.7-0.9-5.1,1.5-4.2,4.2c0.3,0.9,1,1.6,1.9,1.9c2.7,0.9,5.1-1.5,4.2-4.2 C49.3,11.2,48.6,10.4,47.7,10.1z M60.7,10.1c-2.7-0.9-5.1,1.5-4.2,4.2c0.3,0.9,1,1.6,1.9,1.9c2.7,0.9,5.1-1.5,4.2-4.2 C62.4,11.2,61.6,10.4,60.7,10.1z M114.4,14.5l-5.2,1.7c-0.4,0.1-0.7,0.6-0.7,1v9.6c0,0.2-0.2,0.4-0.4,0.4l-5.7,0 c-0.2,0-0.4,0.2-0.4,0.4c-0.1,2.1-0.8,4.1-1.9,5.7c-0.1,0.1,0,0.3,0.2,0.3l11.5,0c1.8,0,3.3-1.5,3.3-3.3V14.9 C115,14.6,114.7,14.4,114.4,14.5z M63.2,33.3c1-1.5,1.7-3.4,1.8-5.3c0-0.4-0.3-0.7-0.7-0.7H39.4c-0.2,0-0.4-0.2-0.4-0.4V10.5 c0-0.3-0.3-0.5-0.6-0.4l-5.2,1.7c-0.4,0.1-0.7,0.6-0.7,1v17.7c0,1.8,1.5,3.3,3.3,3.3H39l23.3,0C62.7,33.8,63,33.6,63.2,33.3z M99.8,27.3c0-6-4.9-10.9-10.9-10.9c-4.8,0-8.8,3.1-10.3,7.4l-0.9,2.8c-0.1,0.4-0.5,0.7-1,0.7l-2.6,0c-0.2,0-0.4-0.2-0.4-0.4V10.5 c0-0.3-0.3-0.5-0.6-0.4l-5.2,1.7c-0.4,0.1-0.7,0.6-0.7,1v17.7c0,1.8,1.4,3.2,3.2,3.2h3.3h2.5c0.3,0,0.5-0.1,0.7-0.3 c0.9-0.8,1.5-1.9,1.9-3l0,0l1.8-5.3c0.9-2.6,3.3-4.4,6.2-4.4c3.6,0,6.5,2.9,6.5,6.5H83.2c-0.5,0-0.9,0.3-1,0.7l-0.9,2.7 c-0.3,1-0.8,1.9-1.4,2.7c-0.1,0.1,0,0.3,0.2,0.3l6.7,0l7.3,0c0.9,0,1.7,0.3,2.3,0.8c0.2,0.1,0.4,0.1,0.6,0c0.2-0.2,0.4-0.5,0.7-0.8 C99,32,99.8,29.8,99.8,27.3"/><path id="sign" fill="#F11D21" d="M17.4,15.2l3.9,2.2c0.4,0.2,0.6,0.7,0.6,1.1l0,6c0,0.5-0.2,0.9-0.6,1.1l-7.1,4.1l0,0l-7.1,4.1 c-0.4,0.2-0.9,0.2-1.3,0l-5.2-3C0.2,30.6,0,30.2,0,29.7l0-4.5c0-0.5,0.2-0.9,0.6-1.1l5.7-3.3c0.6-0.4,1.5,0.1,1.5,0.8l0,1.7 c0,0.5,0.5,0.8,1,0.6l3.2-1.9c0.4-0.2,0.4-0.9,0-1.1l-1.5-0.8c-0.6-0.4-0.6-1.3,0-1.7l5.7-3.3C16.6,14.9,17,14.9,17.4,15.2z M5.8,9.2l-5.2,3C0.2,12.4,0,12.8,0,13.3l0,6.5c0,0.7,0.8,1.2,1.5,0.8l11.3-6.5c0.6-0.4,0.6-1.3,0-1.7L7.1,9.2C6.7,9,6.2,9,5.8,9.2z"/><image display="none" overflow="visible" width="115" height="44" xlink:href="C:\Users\Farakav\Desktop\logo-hr.png" ></image></svg>